<svg version="1.0" xmlns="http://www.w3.org/2000/svg" width="2592" height="4608" viewBox="0 0 1944 3456"><path d="M1343 4.9c0 3.3-.6 5.6-2 7.4-1.1 1.4-2 3-2 3.6 0 .6-.4 1.9-.9 2.9-1.2 2.5-3.2 8.2-4.2 12.2-2.8 11.5-3.5 14-4.7 15.2-.6.6-1.2 1.9-1.2 2.7 0 .8-.4 2.8-.9 4.5-.5 1.7-1.5 5.1-2.1 7.6-.7 2.5-1.6 5.3-2.1 6.2-.5 1-.9 2.7-.9 3.7 0 1.1-.4 2.3-1 2.6-.5.3-1 1.9-1 3.5s-.5 4.2-1.1 5.7c-2.7 6.7-5 13.5-5.9 17.3-.5 1.9-1.1 4.6-1.5 6-.4 1.4-.9 3.7-1.2 5.2-.3 1.5-1.1 3.3-1.9 3.9-.8.6-1.4 2.9-1.4 5s-.4 4-.9 4.3c-.5.3-1.1 1.8-1.4 3.3-1 5.5-1.7 7.7-2.7 8.7-.5.5-1 2-1 3.2 0 1.3-.4 2.6-1 2.9-.5.3-1 1.8-1 3.3 0 2.8-2.1 9.6-3.3 10.8-.4.4-.7 1.8-.7 3.1s-.6 3.4-1.4 4.6c-.8 1.2-1.7 4.6-2.1 7.4-.4 2.9-1.1 5.5-1.6 5.9-.5.3-.9 1.5-.9 2.6 0 1.2-.6 2.9-1.3 3.7-1.4 1.6-3.2 8.3-4.3 15.8-.4 2.4-1.3 4.8-2 5.4-.8.6-1.4 2.2-1.4 3.5 0 1.2-.4 2.5-.9 2.8-.5.3-1.2 2.5-1.5 5-.4 2.4-1.3 5.2-2.1 6.2-.8 1.1-1.5 3.5-1.5 5.5 0 1.9-.4 3.9-.8 4.5-.5.5-1.9 4.3-3.2 8.4-1.2 4.1-2.8 8.8-3.5 10.5-.7 1.6-1.6 5.1-1.9 7.7-.4 2.6-1.1 5-1.7 5.3-.5.4-.9 1.5-.9 2.5s-.6 3.1-1.4 4.7c-.8 1.5-2.2 5.5-3.1 8.8-.9 3.3-2.3 7.5-3.1 9.3-.8 1.8-1.4 4.1-1.4 5 0 1-.4 2.2-1 2.8-.5.5-1.6 3.8-2.5 7.4-2.3 9.3-3 11.7-5.9 19.5-1.4 3.8-2.6 8-2.6 9.1 0 1.2-.7 2.7-1.5 3.4-.8.7-1.5 2.3-1.5 3.6 0 1.2-.4 2.5-.9 2.9-.6.3-1 1.3-1 2.3-.1 3.7-1.4 8.2-2.7 9.3-.8.6-1.4 2.2-1.4 3.5 0 1.2-.4 2.5-.9 2.8-.4.3-1.1 2.4-1.5 4.7-.4 2.3-1.3 5.4-2 6.8-.8 1.4-2.8 7.3-4.6 13.1-1.7 5.8-3.8 11.8-4.5 13.5-1.2 2.8-2.8 8.3-4.2 14.5-.3 1.4-1.1 3.2-1.8 4-1.2 1.5-3 5.9-4.5 11.5-2 6.8-6.8 19.7-7.9 20.8-.6.6-1.1 2.1-1.1 3.4 0 1.3-.4 3.1-.9 4.1-2.8 5.6-5.1 11.5-5.1 13 0 1-.7 2.7-1.5 3.8-.8 1-1.5 2.8-1.5 4 0 1.1-.7 2.9-1.5 4-.8 1-1.5 2.8-1.5 3.9s-.7 2.9-1.5 3.9c-.8 1.1-1.5 2.9-1.5 4 0 1.2-.7 3-1.5 4-.8 1.1-1.5 2.7-1.5 3.5 0 .9-1.1 3.8-2.5 6.5s-2.5 5.4-2.5 6.1c0 .6-.9 2.8-2 5s-2 4.6-2 5.5c0 .8-.9 3.3-1.9 5.5-3.8 7.9-7.1 15.6-7.1 16.7 0 .7-1.4 4.2-3.1 7.8-7.8 16.1-8.9 18.6-8.9 19.7 0 1-2.9 7.7-4.9 11.3-2.9 5.3-4.1 8-4.1 9.3 0 .8-2 5.3-4.5 10-2.5 4.8-4.5 9.5-4.5 10.5 0 1.1-.7 2.5-1.5 3.2-.8.7-1.5 1.8-1.5 2.4 0 .6-3.1 7.2-7 14.6-3.8 7.4-7.3 14.2-7.6 15-1.3 2.9-4.4 9.5-5.3 11-.4.8-2.3 4.6-4.2 8.5-1.9 3.8-4 7.7-4.7 8.6-.7.9-4 7-7.3 13.5-3.4 6.6-6.6 12.5-7.2 13.3-.7.8-3 4.8-5.2 9-6 11.5-9.8 18-12.1 21-1.2 1.4-2.5 3.7-2.9 5.1-.4 1.4-1.7 3.7-2.9 5.1-2.6 3.2-7.5 11.2-9.6 15.9-.9 1.9-2.4 4.1-3.3 4.9-1 .7-1.7 1.7-1.7 2.2 0 .4-1.3 2.8-3 5.2-1.6 2.5-3 4.9-3 5.5 0 .5-1.4 2.7-3 4.8-1.7 2.2-3.7 4.8-4.5 5.9-.8 1-1.5 2.2-1.5 2.7 0 .4-1.4 2.7-3 5-1.7 2.4-3.8 5.4-4.8 6.8-.9 1.4-2.2 3.1-2.9 3.8-.7.7-1.3 1.7-1.3 2.2 0 .8-1.4 2.9-9 13.8-1.6 2.3-3 4.5-3 4.8 0 .3-2 3.2-4.5 6.4s-4.5 6.1-4.5 6.4c0 .7-6.2 9.9-7.1 10.6-.4.3-3.7 5-7.4 10.5-3.6 5.5-7.3 10.4-8.1 10.8-.8.4-1.4 1.3-1.4 1.9 0 .6-1.6 3-3.5 5.4-1.9 2.3-3.5 4.6-3.5 4.9 0 .4-1.5 2.5-3.2 4.6-8 9.4-13.8 17.3-13.8 18.6 0 .3-1.7 2.5-3.7 4.8-2.1 2.3-5.4 6.3-7.3 8.9-1.9 2.6-5 6.5-6.7 8.6-1.8 2-3.3 4.2-3.3 4.9 0 .6-1.4 2.3-3 3.8-1.6 1.4-3 3.2-3 3.9 0 .7-1.8 3-4 5s-4.2 4.5-4.5 5.5c-.4 1-2.4 3.7-4.6 6-2.1 2.2-3.9 4.5-3.9 5s-1.6 2.5-3.5 4.4c-1.9 1.9-4 4.5-4.6 5.7-1.2 2.4-5.2 7.2-12.6 15.5-2.4 2.5-4.3 5.2-4.3 5.9 0 .7-1.3 2.3-2.9 3.6-1.6 1.4-3.4 3.5-4.1 4.7-1.1 2.1-3.1 4.6-16 19.2-2.2 2.5-4 5-4 5.4 0 .4-2.1 3.2-4.7 6.1-2.7 3-7.2 8.2-10.1 11.6-2.9 3.5-7.7 9.1-10.7 12.5-3 3.5-5.5 6.7-5.5 7.2 0 .4-2.5 3.2-5.5 6.2s-5.5 6-5.5 6.8c0 .7-2.7 3.9-6 7.1-3.3 3.2-6 6.3-6 6.9 0 .5-2.7 3.8-6 7.1s-6 6.4-6 6.9c0 .4-2.7 3.5-6 6.9-3.3 3.3-6 6.5-6 7.1 0 .5-3.4 4.5-7.5 8.8-4.1 4.2-7.5 8.1-7.5 8.6 0 .7-5.8 7.4-19.7 22.5-3.2 3.4-6.5 7.4-7.3 8.7-1.6 2.6-7.6 9.3-21.2 23.8-4.9 5.1-8.8 9.7-8.8 10.2s-3.3 4.4-7.2 8.7c-11.7 12.5-17.1 18.5-21 23.5-2 2.6-6.6 7.8-10.2 11.7-19 20.3-24.6 26.5-24.6 27.3 0 .5-3.4 4.3-7.5 8.5s-7.5 8-7.5 8.6c0 .5-4 5.2-9 10.3-4.9 5.1-9 9.7-9 10 0 .4-2.9 3.7-6.4 7.2-3.5 3.6-7.6 8.2-9.2 10.3-1.6 2.1-6.2 7-10.1 11.1-4 4-7.3 7.8-7.3 8.5 0 .7-3.7 4.9-8.1 9.3-4.5 4.4-9 9.3-9.9 10.8-1.7 2.7-6.8 8.3-26.7 29.5-5.1 5.4-9.3 10.2-9.3 10.7s-4.2 5.3-9.2 10.7c-5.1 5.4-13.5 14.4-18.6 20-23.3 25.9-29.7 32.9-38.2 41.9-4.9 5.2-9 10-9 10.7 0 .6-3.9 4.9-8.6 9.4-4.7 4.6-9.2 9.4-9.9 10.8-.7 1.4-4.8 5.9-9 10-4.1 4.1-8.4 8.9-9.5 10.5-1 1.7-7.8 9-15 16.3-7.1 7.2-13 13.7-13 14.3 0 .6-9.2 10.4-20.5 21.6-11.3 11.3-20.5 21-20.5 21.5s-9.3 10.4-20.7 21.8c-11.4 11.5-21.1 21.7-21.7 22.7-.5 1-9.9 10.7-20.8 21.7-10.9 10.9-19.8 20.3-19.8 21 0 .6-9.3 10.3-20.6 21.6s-21.2 21.6-21.9 23c-.8 1.4-10.4 11.5-21.4 22.5-11.1 11-20.1 20.4-20.1 21 0 .6-9.4 10.5-21 22-11.5 11.5-21 21.4-21 22 0 .6-9.4 10.5-21 22s-21 21.4-21 22c0 .5-9 10.2-20 21.5-54.1 55.5-63 64.7-63 65.7 0 .5-2 3-4.5 5.4l-4.5 4.4V2401l674.2-.2 674.3-.3.3-1200.3L1349 0h-3c-2.9 0-3 .1-3 4.9z"/></svg>