<?xml version="1.0" standalone="no"?>
<!DOCTYPE svg PUBLIC "-//W3C//DTD SVG 20010904//EN"
 "http://www.w3.org/TR/2001/REC-SVG-20010904/DTD/svg10.dtd">
<svg version="1.0" xmlns="http://www.w3.org/2000/svg"
 width="1944.000000pt" height="3456.000000pt" viewBox="0 0 1944.000000 3456.000000"
 preserveAspectRatio="xMidYMid meet">
<metadata>
Created by potrace 1.10, written by Peter Selinger 2001-2011
</metadata>
<g transform="translate(0.000000,3456.000000) scale(0.100000,-0.100000)"
fill="#000000" stroke="none">
<path d="M13430 34511 c0 -33 -6 -56 -20 -74 -11 -14 -20 -30 -20 -36 0 -6 -4
-19 -9 -29 -12 -25 -32 -82 -42 -122 -28 -115 -35 -140 -47 -152 -6 -6 -12
-19 -12 -27 0 -8 -4 -28 -9 -45 -5 -17 -15 -51 -21 -76 -7 -25 -16 -53 -21
-62 -5 -10 -9 -27 -9 -37 0 -11 -4 -23 -10 -26 -5 -3 -10 -19 -10 -35 0 -16
-5 -42 -11 -57 -27 -67 -50 -135 -59 -173 -5 -19 -11 -46 -15 -60 -4 -14 -9
-37 -12 -52 -3 -15 -11 -33 -19 -39 -8 -6 -14 -29 -14 -50 0 -21 -4 -40 -9
-43 -5 -3 -11 -18 -14 -33 -10 -55 -17 -77 -27 -87 -5 -5 -10 -20 -10 -32 0
-13 -4 -26 -10 -29 -5 -3 -10 -18 -10 -33 0 -28 -21 -96 -33 -108 -4 -4 -7
-18 -7 -31 0 -13 -6 -34 -14 -46 -8 -12 -17 -46 -21 -74 -4 -29 -11 -55 -16
-59 -5 -3 -9 -15 -9 -26 0 -12 -6 -29 -13 -37 -14 -16 -32 -83 -43 -158 -4
-24 -13 -48 -20 -54 -8 -6 -14 -22 -14 -35 0 -12 -4 -25 -9 -28 -5 -3 -12 -25
-15 -50 -4 -24 -13 -52 -21 -62 -8 -11 -15 -35 -15 -55 0 -19 -4 -39 -8 -45
-5 -5 -19 -43 -32 -84 -12 -41 -28 -88 -35 -105 -7 -16 -16 -51 -19 -77 -4
-26 -11 -50 -17 -53 -5 -4 -9 -15 -9 -25 0 -10 -6 -31 -14 -47 -8 -15 -22 -55
-31 -88 -9 -33 -23 -75 -31 -93 -8 -18 -14 -41 -14 -50 0 -10 -4 -22 -10 -28
-5 -5 -16 -38 -25 -74 -23 -93 -30 -117 -59 -195 -14 -38 -26 -80 -26 -91 0
-12 -7 -27 -15 -34 -8 -7 -15 -23 -15 -36 0 -12 -4 -25 -9 -29 -6 -3 -10 -13
-10 -23 -1 -37 -14 -82 -27 -93 -8 -6 -14 -22 -14 -35 0 -12 -4 -25 -9 -28 -4
-3 -11 -24 -15 -47 -4 -23 -13 -54 -20 -68 -8 -14 -28 -73 -46 -131 -17 -58
-38 -118 -45 -135 -12 -28 -28 -83 -42 -145 -3 -14 -11 -32 -18 -40 -12 -15
-30 -59 -45 -115 -20 -68 -68 -197 -79 -208 -6 -6 -11 -21 -11 -34 0 -13 -4
-31 -9 -41 -28 -56 -51 -115 -51 -130 0 -10 -7 -27 -15 -38 -8 -10 -15 -28
-15 -40 0 -11 -7 -29 -15 -40 -8 -10 -15 -28 -15 -39 0 -11 -7 -29 -15 -39 -8
-11 -15 -29 -15 -40 0 -12 -7 -30 -15 -40 -8 -11 -15 -27 -15 -35 0 -9 -11
-38 -25 -65 -14 -27 -25 -54 -25 -61 0 -6 -9 -28 -20 -50 -11 -22 -20 -46 -20
-55 0 -8 -9 -33 -19 -55 -38 -79 -71 -156 -71 -167 0 -7 -14 -42 -31 -78 -78
-161 -89 -186 -89 -197 0 -10 -29 -77 -49 -113 -29 -53 -41 -80 -41 -93 0 -8
-20 -53 -45 -100 -25 -48 -45 -95 -45 -105 0 -11 -7 -25 -15 -32 -8 -7 -15
-18 -15 -24 0 -6 -31 -72 -70 -146 -38 -74 -73 -142 -76 -150 -13 -29 -44 -95
-53 -110 -4 -8 -23 -46 -42 -85 -19 -38 -40 -77 -47 -86 -7 -9 -40 -70 -73
-135 -34 -66 -66 -125 -72 -133 -7 -8 -30 -48 -52 -90 -60 -115 -98 -180 -121
-210 -12 -14 -25 -37 -29 -51 -4 -14 -17 -37 -29 -51 -26 -32 -75 -112 -96
-159 -9 -19 -24 -41 -33 -49 -10 -7 -17 -17 -17 -22 0 -4 -13 -28 -30 -52 -16
-25 -30 -49 -30 -55 0 -5 -14 -27 -30 -48 -17 -22 -37 -48 -45 -59 -8 -10 -15
-22 -15 -27 0 -4 -14 -27 -30 -50 -17 -24 -38 -54 -48 -68 -9 -14 -22 -31 -29
-38 -7 -7 -13 -17 -13 -22 0 -8 -14 -29 -90 -138 -16 -23 -30 -45 -30 -48 0
-3 -20 -32 -45 -64 -25 -32 -45 -61 -45 -64 0 -7 -62 -99 -71 -106 -4 -3 -37
-50 -74 -105 -36 -55 -73 -104 -81 -108 -8 -4 -14 -13 -14 -19 0 -6 -16 -30
-35 -54 -19 -23 -35 -46 -35 -49 0 -4 -15 -25 -32 -46 -80 -94 -138 -173 -138
-186 0 -3 -17 -25 -37 -48 -21 -23 -54 -63 -73 -89 -19 -26 -50 -65 -67 -86
-18 -20 -33 -42 -33 -49 0 -6 -14 -23 -30 -38 -16 -14 -30 -32 -30 -39 0 -7
-18 -30 -40 -50 -22 -20 -42 -45 -45 -55 -4 -10 -24 -37 -46 -60 -21 -22 -39
-45 -39 -50 0 -5 -16 -25 -35 -44 -19 -19 -40 -45 -46 -57 -12 -24 -52 -72
-126 -155 -24 -25 -43 -52 -43 -59 0 -7 -13 -23 -29 -36 -16 -14 -34 -35 -41
-47 -11 -21 -31 -46 -160 -192 -22 -25 -40 -50 -40 -54 0 -4 -21 -32 -47 -61
-27 -30 -72 -82 -101 -116 -29 -35 -77 -91 -107 -125 -30 -35 -55 -67 -55 -72
0 -4 -25 -32 -55 -62 -30 -30 -55 -60 -55 -68 0 -7 -27 -39 -60 -71 -33 -32
-60 -63 -60 -69 0 -5 -27 -38 -60 -71 -33 -33 -60 -64 -60 -69 0 -4 -27 -35
-60 -69 -33 -33 -60 -65 -60 -71 0 -5 -34 -45 -75 -88 -41 -42 -75 -81 -75
-86 0 -7 -58 -74 -197 -225 -32 -34 -65 -74 -73 -87 -16 -26 -76 -93 -212
-238 -49 -51 -88 -97 -88 -102 0 -5 -33 -44 -72 -87 -117 -125 -171 -185 -210
-235 -20 -26 -66 -78 -102 -117 -190 -203 -246 -265 -246 -273 0 -5 -34 -43
-75 -85 -41 -42 -75 -80 -75 -86 0 -5 -40 -52 -90 -103 -49 -51 -90 -97 -90
-100 0 -4 -29 -37 -64 -72 -35 -36 -76 -82 -92 -103 -16 -21 -62 -70 -101
-111 -40 -40 -73 -78 -73 -85 0 -7 -37 -49 -81 -93 -45 -44 -90 -93 -99 -108
-17 -27 -68 -83 -267 -295 -51 -54 -93 -102 -93 -107 0 -5 -42 -53 -92 -107
-51 -54 -135 -144 -186 -200 -233 -259 -297 -329 -382 -419 -49 -52 -90 -100
-90 -107 0 -6 -39 -49 -86 -94 -47 -46 -92 -94 -99 -108 -7 -14 -48 -59 -90
-100 -41 -41 -84 -89 -95 -105 -10 -17 -78 -90 -150 -163 -71 -72 -130 -137
-130 -143 0 -6 -92 -104 -205 -216 -113 -113 -205 -210 -205 -215 0 -5 -93
-104 -207 -218 -114 -115 -211 -217 -217 -227 -5 -10 -99 -107 -208 -217 -109
-109 -198 -203 -198 -210 0 -6 -93 -103 -206 -216 -113 -113 -212 -216 -219
-230 -8 -14 -104 -115 -214 -225 -111 -110 -201 -204 -201 -210 0 -6 -94 -105
-210 -220 -115 -115 -210 -214 -210 -220 0 -6 -94 -105 -210 -220 -116 -115
-210 -214 -210 -220 0 -5 -90 -102 -200 -215 -541 -555 -630 -647 -630 -657 0
-5 -20 -30 -45 -54 l-45 -44 0 -2158 0 -2157 6742 2 6743 3 3 12003 2 12002
-30 0 c-29 0 -30 -1 -30 -49z"/>
</g>
</svg>
